<?xml version="1.0" encoding="UTF-8" standalone="no"?>
<svg
   xmlns:dc="http://purl.org/dc/elements/1.1/"
   xmlns:cc="http://creativecommons.org/ns#"
   xmlns:rdf="http://www.w3.org/1999/02/22-rdf-syntax-ns#"
   xmlns:svg="http://www.w3.org/2000/svg"
   xmlns="http://www.w3.org/2000/svg"
   xmlns:sodipodi="http://sodipodi.sourceforge.net/DTD/sodipodi-0.dtd"
   xmlns:inkscape="http://www.inkscape.org/namespaces/inkscape"
   version="1.1"
   id="Capa_1"
   x="0px"
   y="0px"
   viewBox="0 0 10.742167 10.742165"
   xml:space="preserve"
   width="15.5"
   height="15.5"
   class=""
   sodipodi:docname="document.svg"
   inkscape:version="0.92.2 2405546, 2018-03-11"><metadata
   id="metadata21"><rdf:RDF><cc:Work
       rdf:about=""><dc:format>image/svg+xml</dc:format><dc:type
         rdf:resource="http://purl.org/dc/dcmitype/StillImage" /><dc:title></dc:title></cc:Work></rdf:RDF></metadata><defs
   id="defs19" /><sodipodi:namedview
   pagecolor="#ffffff"
   bordercolor="#666666"
   borderopacity="1"
   objecttolerance="10"
   gridtolerance="10"
   guidetolerance="10"
   inkscape:pageopacity="0"
   inkscape:pageshadow="2"
   inkscape:window-width="1920"
   inkscape:window-height="1026"
   id="namedview17"
   showgrid="false"
   fit-margin-top="0"
   fit-margin-left="0"
   fit-margin-right="0"
   fit-margin-bottom="0"
   inkscape:zoom="20.85965"
   inkscape:cx="7.1321473"
   inkscape:cy="5.6562198"
   inkscape:window-x="0"
   inkscape:window-y="0"
   inkscape:window-maximized="1"
   inkscape:current-layer="Capa_1" /> <style
   id="style831"
   type="text/css">.icon-canvas-transparent{opacity:0;fill:#F6F6F6;} .icon-vs-out{opacity:0;fill:#F6F6F6;} .icon-vs-bg{fill:#656565;} .icon-vs-fg{fill:#F0EFF1;}</style><g
   id="g850"
   transform="scale(0.67138537)"
   style="fill:#000000;fill-opacity:1"><path
     id="canvas"
     d="M 16,16 H 0 V 0 h 16 z"
     class="icon-canvas-transparent"
     inkscape:connector-curvature="0"
     style="opacity:0;fill:#000000;fill-opacity:1" /><path
     id="outline"
     d="M 4,15 C 3.03,15 2,14.299 2,13 V 3 C 2,1.701 3.03,1 4,1 h 6.061 L 14,4.556 V 13 c 0,0.97 -0.701,2 -2,2 z"
     class="icon-vs-out"
     inkscape:connector-curvature="0"
     style="opacity:0;fill:#000000;fill-opacity:1" /><path
     id="iconBg"
     d="M 9.641,2 H 3.964 C 3.964,2 3,2 3,3 c 0,0.805 0,7.442 0,10 0,1 0.965,1 0.965,1 0,0 7,0 8,0 1,0 1.035,-1 1.035,-1 V 5 Z M 12,13 H 4 V 3 h 5 v 3 h 3 z"
     class="icon-vs-bg"
     inkscape:connector-curvature="0"
     style="fill:#c5c5c5;fill-opacity:1" /><path
     id="iconFg"
     d="m 4,3 h 5 v 3 h 3 v 7 H 4 Z"
     class="icon-vs-fg"
     inkscape:connector-curvature="0"
     style="fill:#2d2d30;fill-opacity:1" /></g></svg>