<?xml version="1.0" encoding="UTF-8" standalone="no"?>
<svg
   xmlns:dc="http://purl.org/dc/elements/1.1/"
   xmlns:cc="http://creativecommons.org/ns#"
   xmlns:rdf="http://www.w3.org/1999/02/22-rdf-syntax-ns#"
   xmlns:svg="http://www.w3.org/2000/svg"
   xmlns="http://www.w3.org/2000/svg"
   xmlns:sodipodi="http://sodipodi.sourceforge.net/DTD/sodipodi-0.dtd"
   xmlns:inkscape="http://www.inkscape.org/namespaces/inkscape"
   height="16px"
   viewBox="0 -40 480 480"
   width="16px"
   version="1.1"
   id="svg881"
   sodipodi:docname="frame.svg"
   inkscape:version="0.92.2 2405546, 2018-03-11">
  <metadata
     id="metadata887">
    <rdf:RDF>
      <cc:Work
         rdf:about="">
        <dc:format>image/svg+xml</dc:format>
        <dc:type
           rdf:resource="http://purl.org/dc/dcmitype/StillImage" />
      </cc:Work>
    </rdf:RDF>
  </metadata>
  <defs
     id="defs885" />
  <sodipodi:namedview
     pagecolor="#ffffff"
     bordercolor="#666666"
     borderopacity="1"
     objecttolerance="10"
     gridtolerance="10"
     guidetolerance="10"
     inkscape:pageopacity="0"
     inkscape:pageshadow="2"
     inkscape:window-width="1920"
     inkscape:window-height="1026"
     id="namedview883"
     showgrid="false"
     inkscape:zoom="48.9375"
     inkscape:cx="8.9399745"
     inkscape:cy="8.7560664"
     inkscape:window-x="0"
     inkscape:window-y="0"
     inkscape:window-maximized="1"
     inkscape:current-layer="svg881" />
  <path
     d="m472 0h-464c-4.417969 0-8 3.582031-8 8v384c0 4.417969 3.582031 8 8 8h464c4.417969 0 8-3.582031 8-8v-384c0-4.417969-3.582031-8-8-8zm-8 384h-448v-368h448zm0 0"
     id="path871"
     style="fill:#b4b4b4;fill-opacity:1" />
  <path
     d="m40 160h32c4.417969 0 8-3.582031 8-8v-72h72c4.417969 0 8-3.582031 8-8v-32c0-4.417969-3.582031-8-8-8h-112c-4.417969 0-8 3.582031-8 8v112c0 4.417969 3.582031 8 8 8zm8-112h96v16h-72c-4.417969 0-8 3.582031-8 8v72h-16zm0 0"
     id="path873"
     style="fill:#b4b4b4;fill-opacity:1" />
  <path
     d="m40 368h112c4.417969 0 8-3.582031 8-8v-32c0-4.417969-3.582031-8-8-8h-72v-72c0-4.417969-3.582031-8-8-8h-32c-4.417969 0-8 3.582031-8 8v112c0 4.417969 3.582031 8 8 8zm8-112h16v72c0 4.417969 3.582031 8 8 8h72v16h-96zm0 0"
     id="path875"
     style="fill:#b4b4b4;fill-opacity:1" />
  <path
     d="m328 80h72v72c0 4.417969 3.582031 8 8 8h32c4.417969 0 8-3.582031 8-8v-112c0-4.417969-3.582031-8-8-8h-112c-4.417969 0-8 3.582031-8 8v32c0 4.417969 3.582031 8 8 8zm8-32h96v96h-16v-72c0-4.417969-3.582031-8-8-8h-72zm0 0"
     id="path877"
     style="fill:#b4b4b4;fill-opacity:1" />
  <path
     d="m328 368h112c4.417969 0 8-3.582031 8-8v-112c0-4.417969-3.582031-8-8-8h-32c-4.417969 0-8 3.582031-8 8v72h-72c-4.417969 0-8 3.582031-8 8v32c0 4.417969 3.582031 8 8 8zm8-32h72c4.417969 0 8-3.582031 8-8v-72h16v96h-96zm0 0"
     id="path879"
     style="fill:#b4b4b4;fill-opacity:1" />
</svg>
