<?xml version="1.0" encoding="UTF-8" standalone="no"?>
<svg
   xmlns:dc="http://purl.org/dc/elements/1.1/"
   xmlns:cc="http://creativecommons.org/ns#"
   xmlns:rdf="http://www.w3.org/1999/02/22-rdf-syntax-ns#"
   xmlns:svg="http://www.w3.org/2000/svg"
   xmlns="http://www.w3.org/2000/svg"
   xmlns:sodipodi="http://sodipodi.sourceforge.net/DTD/sodipodi-0.dtd"
   xmlns:inkscape="http://www.inkscape.org/namespaces/inkscape"
   width="32px"
   height="32px"
   viewBox="0 0 32 32"
   version="1.1"
   id="svg13"
   sodipodi:docname="layout.svg"
   inkscape:version="0.92.2 2405546, 2018-03-11">
  <metadata
     id="metadata17">
    <rdf:RDF>
      <cc:Work
         rdf:about="">
        <dc:format>image/svg+xml</dc:format>
        <dc:type
           rdf:resource="http://purl.org/dc/dcmitype/StillImage" />
        <dc:title>Slice</dc:title>
      </cc:Work>
    </rdf:RDF>
  </metadata>
  <sodipodi:namedview
     pagecolor="#ffffff"
     bordercolor="#666666"
     borderopacity="1"
     objecttolerance="10"
     gridtolerance="10"
     guidetolerance="10"
     inkscape:pageopacity="0"
     inkscape:pageshadow="2"
     inkscape:window-width="1920"
     inkscape:window-height="1026"
     id="namedview15"
     showgrid="false"
     inkscape:pagecheckerboard="true"
     inkscape:zoom="10.429825"
     inkscape:cx="-5.9091289"
     inkscape:cy="13.429442"
     inkscape:window-x="0"
     inkscape:window-y="0"
     inkscape:window-maximized="1"
     inkscape:current-layer="svg13" />
  <!-- Generator: Sketch 40.3 (33839) - http://www.bohemiancoding.com/sketch -->
  <title
     id="title2">Slice</title>
  <desc
     id="desc4">Created with Sketch.</desc>
  <defs
     id="defs6" />
  <g
     transform="matrix(0.0678722,0,0,0.0678722,4.291043,4.2133435)"
     id="g14">
    <g
       id="g12">
	<g
   id="g10">
		<g
   id="g8">
			<path
   style="fill:#ffffff;fill-opacity:1"
   inkscape:connector-curvature="0"
   id="path2"
   data-old_color="#D1D0D0"
   class="active-path"
   data-original="#231F20"
   d="M 348.4,17.419 H 6.8 c -3.6,0 -6.8,3.2 -6.8,6.8 v 250 c 0,3.6 3.2,6.8 6.8,6.8 h 119.6 v 20.8 h -10 c -16,0 -28.8,12.8 -28.8,28.8 0,3.6 3.2,6.8 6.8,6.8 3.6,0 6.8,-3.2 6.8,-6.8 0,-8.4 6.8,-15.2 15.2,-15.2 h 122 c 8.4,0 15.2,6.8 15.2,15.2 0,3.6 3.2,6.8 6.8,6.8 3.6,0 6.8,-3.2 6.8,-6.8 0,-16 -12.8,-28.8 -28.8,-28.8 h -10 v -20.8 H 348 c 3.6,0 6.8,-3.2 6.8,-6.8 v -250 c 0.4,-4 -2.4,-6.8 -6.4,-6.8 z M 140,299.819 v -18.8 h 74.8 v 18.8 z m 201.6,-32.4 h -328 v -34 h 328 z m 0,-47.6 h -328 v -188.8 h 328 z" />

			<path
   style="fill:#ffffff;fill-opacity:1"
   inkscape:connector-curvature="0"
   id="path4"
   data-old_color="#D1D0D0"
   class="active-path"
   data-original="#231F20"
   d="m 156.4,257.819 h 42.4 c 3.6,0 6.8,-3.2 6.8,-6.8 0,-3.6 -2.8,-6.8 -6.8,-6.8 h -42.4 c -3.6,0 -6.8,3.2 -6.8,6.8 0,3.6 3.2,6.8 6.8,6.8 z" />

			<path
   style="fill:#ffffff;fill-opacity:1"
   inkscape:connector-curvature="0"
   id="path6"
   data-old_color="#D1D0D0"
   class="active-path"
   data-original="#231F20"
   d="m 69.2,196.619 c 14.4,0 26,-11.6 26,-26 0,-3.6 -0.8,-7.2 -2,-10 l 34,-26.8 c 4.4,3.2 9.6,5.2 15.6,5.2 6.8,0 13.2,-2.8 18,-7.2 l 18.4,10.8 c -0.4,2 -0.8,4 -0.8,6.4 0,14.4 11.6,26 26,26 14.4,0 26,-11.6 26,-26 0,-2.4 -0.4,-5.2 -1.2,-7.2 l 41.2,-28.4 c 4.4,4 10.4,6.4 16.8,6.4 14.4,0 26,-11.6 26,-26 0,-14.4 -11.6,-26 -26,-26 -14.4,0 -26,11.6 -26,26 0,2.8 0.4,5.6 1.6,8.4 l -41.2,28 c -4.8,-4.4 -10.8,-7.2 -17.6,-7.2 -7.2,0 -13.6,2.8 -18.4,7.6 l -18,-10.8 c 0.8,-2.4 1.2,-4.8 1.2,-7.2 0,-14.4 -11.6,-26 -26,-26 -14.4,0 -26,11.6 -26,26 0,3.6 0.8,6.8 2,10 l -34,26.8 c -4.4,-3.2 -9.6,-5.2 -15.2,-5.2 -14.4,0 -26,11.6 -26,26 -0.4,14.8 11.2,26.4 25.6,26.4 z m 218,-115.2 c 6.8,0 12.4,5.6 12.4,12.4 0,6.8 -5.6,12.4 -12.4,12.4 -6.8,0 -12.4,-5.6 -12.4,-12.4 0,-6.8 5.6,-12.4 12.4,-12.4 z m -94,61.6 c 2,-4 6,-6.4 10.8,-6.4 6.8,0 12.4,5.6 12.4,12.4 0,6.8 -5.6,12.4 -12.4,12.4 -6.8,0 -12.4,-5.6 -12.4,-12.4 0,-2 0.4,-4 1.6,-6 z m -50.8,-42.4 c 6.8,0 12.4,5.6 12.4,12.4 0,2.4 -0.8,4.4 -1.6,6.4 0,0 0,0 0,0.4 -2.4,3.2 -6,5.6 -10.4,5.6 -4,0 -7.6,-2 -9.6,-4.8 -1.6,-2 -2.4,-4.4 -2.4,-7.2 -0.8,-7.2 4.8,-12.8 11.6,-12.8 z m -73.2,57.6 c 4,0 7.2,2 9.6,4.8 1.6,2 2.8,4.8 2.8,7.6 0,6.8 -5.6,12.4 -12.4,12.4 -6.8,0 -12.4,-5.6 -12.4,-12.4 0,-6.8 5.6,-12.4 12.4,-12.4 z" />

		</g>

	</g>

</g>
  </g>
</svg>
