<svg height="16px" viewBox="0 -40 480 480" width="16px" xmlns="http://www.w3.org/2000/svg"><path d="m472 0h-464c-4.417969 0-8 3.582031-8 8v384c0 4.417969 3.582031 8 8 8h464c4.417969 0 8-3.582031 8-8v-384c0-4.417969-3.582031-8-8-8zm-8 384h-448v-368h448zm0 0"/><path d="m40 160h32c4.417969 0 8-3.582031 8-8v-72h72c4.417969 0 8-3.582031 8-8v-32c0-4.417969-3.582031-8-8-8h-112c-4.417969 0-8 3.582031-8 8v112c0 4.417969 3.582031 8 8 8zm8-112h96v16h-72c-4.417969 0-8 3.582031-8 8v72h-16zm0 0"/><path d="m40 368h112c4.417969 0 8-3.582031 8-8v-32c0-4.417969-3.582031-8-8-8h-72v-72c0-4.417969-3.582031-8-8-8h-32c-4.417969 0-8 3.582031-8 8v112c0 4.417969 3.582031 8 8 8zm8-112h16v72c0 4.417969 3.582031 8 8 8h72v16h-96zm0 0"/><path d="m328 80h72v72c0 4.417969 3.582031 8 8 8h32c4.417969 0 8-3.582031 8-8v-112c0-4.417969-3.582031-8-8-8h-112c-4.417969 0-8 3.582031-8 8v32c0 4.417969 3.582031 8 8 8zm8-32h96v96h-16v-72c0-4.417969-3.582031-8-8-8h-72zm0 0"/><path d="m328 368h112c4.417969 0 8-3.582031 8-8v-112c0-4.417969-3.582031-8-8-8h-32c-4.417969 0-8 3.582031-8 8v72h-72c-4.417969 0-8 3.582031-8 8v32c0 4.417969 3.582031 8 8 8zm8-32h72c4.417969 0 8-3.582031 8-8v-72h16v96h-96zm0 0"/></svg>