<?xml version="1.0" encoding="UTF-8" standalone="no"?>
<!-- Generator: Adobe Illustrator 19.0.0, SVG Export Plug-In . SVG Version: 6.00 Build 0)  -->

<svg
   xmlns:dc="http://purl.org/dc/elements/1.1/"
   xmlns:cc="http://creativecommons.org/ns#"
   xmlns:rdf="http://www.w3.org/1999/02/22-rdf-syntax-ns#"
   xmlns:svg="http://www.w3.org/2000/svg"
   xmlns="http://www.w3.org/2000/svg"
   xmlns:sodipodi="http://sodipodi.sourceforge.net/DTD/sodipodi-0.dtd"
   xmlns:inkscape="http://www.inkscape.org/namespaces/inkscape"
   version="1.1"
   id="Capa_1"
   x="0px"
   y="0px"
   viewBox="0 0 13.849839 18"
   xml:space="preserve"
   sodipodi:docname="new-file.svg"
   inkscape:version="0.92.2 2405546, 2018-03-11"
   width="13.849839"
   height="18"><metadata
   id="metadata43"><rdf:RDF><cc:Work
       rdf:about=""><dc:format>image/svg+xml</dc:format><dc:type
         rdf:resource="http://purl.org/dc/dcmitype/StillImage" /><dc:title></dc:title></cc:Work></rdf:RDF></metadata><defs
   id="defs41"><filter
     style="color-interpolation-filters:sRGB"
     inkscape:label="Greyscale"
     id="filter3894"><feColorMatrix
       values="-8.91 -8.69 -8.74 0.721311 0 -8.91 -8.69 -8.74 0.721311 0 -8.91 -8.69 -8.74 0.721311 0 0 0 0 1 0 "
       id="feColorMatrix3892" /></filter></defs><sodipodi:namedview
   pagecolor="#ffffff"
   bordercolor="#666666"
   borderopacity="1"
   objecttolerance="10"
   gridtolerance="10"
   guidetolerance="10"
   inkscape:pageopacity="0"
   inkscape:pageshadow="2"
   inkscape:window-width="1920"
   inkscape:window-height="1026"
   id="namedview39"
   showgrid="false"
   inkscape:zoom="1.7111617"
   inkscape:cx="-5.6763338"
   inkscape:cy="12.633989"
   inkscape:window-x="0"
   inkscape:window-y="0"
   inkscape:window-maximized="1"
   inkscape:current-layer="Capa_1"
   fit-margin-top="0"
   fit-margin-left="0"
   fit-margin-right="0"
   fit-margin-bottom="0" />
<g
   id="g6"
   style="filter:url(#filter3894)"
   transform="matrix(0.05438014,0,0,0.05438014,-0.57508082,1.5000001)">
	<path
   d="m 191.344,20.922 -95.155,95.155 c -0.756,0.756 -1.297,1.699 -1.565,2.734 l -8.167,31.454 c -0.534,2.059 0.061,4.246 1.565,5.751 1.14,1.139 2.671,1.757 4.242,1.757 0.503,0 1.009,-0.063 1.508,-0.192 l 31.454,-8.168 c 1.035,-0.269 1.979,-0.81 2.734,-1.565 l 95.153,-95.153 c 0.002,-0.002 0.004,-0.003 0.005,-0.004 0.001,-0.001 0.003,-0.004 0.004,-0.005 L 242.278,33.53 c 2.344,-2.343 2.344,-6.142 0.001,-8.484 L 218.994,1.758 C 217.868,0.632 216.343,0 214.751,0 c -1.591,0 -3.117,0.632 -4.242,1.758 l -19.155,19.155 c -0.002,0.002 -0.004,0.003 -0.005,0.004 -10e-4,10e-4 -0.003,0.004 -0.005,0.005 z m -70.713,117.286 -19.993,5.192 5.191,-19.993 89.762,-89.762 14.801,14.802 z M 214.751,14.485 229.552,29.287 218.877,39.962 204.076,25.16 Z"
   id="path2"
   inkscape:connector-curvature="0" />
	<path
   d="m 238.037,65.022 c -3.313,0 -6,2.687 -6,6 V 263.835 H 43.799 V 34.417 h 111.063 c 3.313,0 6,-2.687 6,-6 0,-3.313 -2.687,-6 -6,-6 H 37.799 c -3.313,0 -6,2.687 -6,6 v 241.419 c 0,3.313 2.687,6 6,6 h 200.238 c 3.313,0 6,-2.687 6,-6 V 71.022 c 0,-3.313 -2.686,-6 -6,-6 z"
   id="path4"
   inkscape:connector-curvature="0" />
</g>
<g
   id="g8"
   transform="translate(-57.327064,-98.495013)">
</g>
<g
   id="g10"
   transform="translate(-57.327064,-98.495013)">
</g>
<g
   id="g12"
   transform="translate(-57.327064,-98.495013)">
</g>
<g
   id="g14"
   transform="translate(-57.327064,-98.495013)">
</g>
<g
   id="g16"
   transform="translate(-57.327064,-98.495013)">
</g>
<g
   id="g18"
   transform="translate(-57.327064,-98.495013)">
</g>
<g
   id="g20"
   transform="translate(-57.327064,-98.495013)">
</g>
<g
   id="g22"
   transform="translate(-57.327064,-98.495013)">
</g>
<g
   id="g24"
   transform="translate(-57.327064,-98.495013)">
</g>
<g
   id="g26"
   transform="translate(-57.327064,-98.495013)">
</g>
<g
   id="g28"
   transform="translate(-57.327064,-98.495013)">
</g>
<g
   id="g30"
   transform="translate(-57.327064,-98.495013)">
</g>
<g
   id="g32"
   transform="translate(-57.327064,-98.495013)">
</g>
<g
   id="g34"
   transform="translate(-57.327064,-98.495013)">
</g>
<g
   id="g36"
   transform="translate(-57.327064,-98.495013)">
</g>
<g
   style="filter:url(#filter3894)"
   id="g31"
   transform="matrix(0.05438014,0,0,0.05438014,-0.57508082,1.5000001)">
	<path
   id="path26"
   d="m 191.344,20.922 -95.155,95.155 c -0.756,0.756 -1.297,1.699 -1.565,2.734 l -8.167,31.454 c -0.534,2.059 0.061,4.246 1.565,5.751 1.14,1.139 2.671,1.757 4.242,1.757 0.503,0 1.009,-0.063 1.508,-0.192 l 31.454,-8.168 c 1.035,-0.269 1.979,-0.81 2.734,-1.565 l 95.153,-95.153 c 0.002,-0.002 0.004,-0.003 0.005,-0.004 0.001,-0.001 0.003,-0.004 0.004,-0.005 L 242.278,33.53 c 2.344,-2.343 2.344,-6.142 0.001,-8.484 L 218.994,1.758 C 217.868,0.632 216.343,0 214.751,0 c -1.591,0 -3.117,0.632 -4.242,1.758 l -19.155,19.155 c -0.002,0.002 -0.004,0.003 -0.005,0.004 -10e-4,10e-4 -0.003,0.004 -0.005,0.005 z m -70.713,117.286 -19.993,5.192 5.191,-19.993 89.762,-89.762 14.801,14.802 z M 214.751,14.485 229.552,29.287 218.877,39.962 204.076,25.16 Z"
   inkscape:connector-curvature="0" />
	<path
   id="path28"
   d="m 238.037,65.022 c -3.313,0 -6,2.687 -6,6 V 263.835 H 43.799 V 34.417 h 111.063 c 3.313,0 6,-2.687 6,-6 0,-3.313 -2.687,-6 -6,-6 H 37.799 c -3.313,0 -6,2.687 -6,6 v 241.419 c 0,3.313 2.687,6 6,6 h 200.238 c 3.313,0 6,-2.687 6,-6 V 71.022 c 0,-3.313 -2.686,-6 -6,-6 z"
   inkscape:connector-curvature="0" />
</g></svg>